<svg width="16" height="16" viewBox="0 0 16 16" fill="none" xmlns="http://www.w3.org/2000/svg">
<path d="M14.5677 3.01465C14.7764 3.01465 14.9205 3.16346 15 3.46108C14.9404 4.46306 14.8758 5.17735 14.8062 5.60393C14.7366 6.0206 14.677 6.38766 14.6273 6.70512C14.5876 7.02258 14.5577 7.24084 14.5379 7.35989C14.5279 7.47893 14.4882 7.72199 14.4186 8.08905C14.349 8.45612 14.2745 8.82318 14.195 9.19024C14.1254 9.54739 14.0807 9.76068 14.0608 9.83012C14.0509 9.89957 13.9614 10.346 13.7925 11.1694C13.6235 11.9829 13.4943 12.4839 13.4049 12.6724C13.3254 12.851 13.1813 12.9402 12.9726 12.9402C12.7738 12.9402 12.6148 12.8807 12.4955 12.7617C12.0383 12.1367 11.606 11.3629 11.1986 10.4402C11.0992 10.2021 10.9849 9.94421 10.8557 9.66643C10.7364 9.38866 10.647 9.18032 10.5873 9.04143L10.4532 8.72893C10.2445 9.08608 9.95625 9.69124 9.58853 10.5444C9.22081 11.3976 8.89781 12.0821 8.61954 12.598C8.44064 12.8262 8.24188 12.9402 8.02323 12.9402C7.56606 12.9402 7.21822 11.725 6.9797 9.29441C6.9797 9.28449 6.96976 9.22993 6.94988 9.13072C6.93994 9.03151 6.92007 8.8579 6.89025 8.60989C6.87038 8.36187 6.84056 8.08905 6.80081 7.79143C6.77099 7.48389 6.64676 6.22893 6.42812 4.02655C6.42812 3.82814 6.50265 3.64957 6.65173 3.49084C6.80081 3.32219 6.96479 3.23786 7.14368 3.23786C7.36233 3.23786 7.5114 3.38171 7.59091 3.66941C7.85925 6.89362 8.12758 9.27457 8.39592 10.8123C8.47543 10.6734 8.67917 10.217 9.00713 9.44322C9.3351 8.65949 9.63325 8.03945 9.90159 7.5831C10.1699 7.11683 10.4283 6.8837 10.6768 6.8837C10.8457 6.8837 10.9898 6.97298 11.1091 7.15155C11.7352 8.92735 12.2719 10.1773 12.7191 10.9016C12.7291 10.7924 12.7887 10.4948 12.898 10.0087L13.0918 9.05631C13.0918 8.99679 13.1018 8.91247 13.1216 8.80334C13.1515 8.69421 13.1713 8.59005 13.1813 8.49084C13.2011 8.38171 13.221 8.28251 13.2409 8.19322L13.4049 7.25572C13.6434 5.78747 13.7925 4.58211 13.8521 3.63965C13.8919 3.471 13.9813 3.32715 14.1204 3.2081C14.2695 3.07913 14.4186 3.01465 14.5677 3.01465Z" fill="#359B85"/>
<path d="M4.04115 3.49107C4.04115 3.38194 4.12066 3.27282 4.27968 3.16369C4.43869 3.05456 4.59274 3 4.74181 3C4.90083 3 5.02009 3.03472 5.09959 3.10417C5.18904 3.17361 5.23873 3.25794 5.24867 3.35714C5.45738 6.03571 5.56173 7.73214 5.56173 8.44643C5.56173 9.15079 5.55179 9.68155 5.53192 10.0387C5.51204 10.3958 5.46235 10.7827 5.38284 11.1994C5.30333 11.6061 5.18904 11.9286 5.03996 12.1667C4.712 12.7222 4.18526 13 3.45976 13C2.73425 13 2.14292 12.7619 1.68575 12.2857C1.22858 11.7996 1 11.1052 1 10.2024C1 10.0536 1.07454 9.91964 1.22361 9.80059C1.38263 9.67163 1.55158 9.60714 1.73047 9.60714C1.94912 9.60714 2.08329 9.81052 2.13298 10.2173C2.26218 11.3681 2.6945 11.9435 3.42994 11.9435C3.61877 11.9435 3.77779 11.8839 3.90699 11.7649C4.04612 11.6359 4.15048 11.4871 4.22005 11.3185C4.28961 11.1399 4.34428 10.9067 4.38403 10.619C4.44366 10.2024 4.47347 9.70635 4.47347 9.13095C4.47347 8.54563 4.39894 7.48413 4.24986 5.94643C4.11072 4.40873 4.04115 3.59028 4.04115 3.49107Z" fill="#F0835B"/>
</svg>
