<svg width="302" height="22" viewBox="0 0 302 22" fill="none" xmlns="http://www.w3.org/2000/svg">
<path d="M0.88 2.02L8.98 1.9C9.36667 2.02 9.56 2.21333 9.56 2.48C9.56 3.14667 9.28667 3.48 8.74 3.48C7.74 3.48 6.68 3.50667 5.56 3.56C5.49333 4.70667 5.46 5.57333 5.46 6.16C5.46 6.73333 5.46 7.1 5.46 7.26L5.54 14.28C5.54 14.6933 5.43333 14.9333 5.22 15C5.06 15.0533 4.86 15.08 4.62 15.08C4.23333 15.08 4.02 14.86 3.98 14.42C3.9 13.3933 3.86 11.48 3.86 8.68C3.86 5.86667 3.9 4.17333 3.98 3.6C3.7 3.61333 3.28667 3.62 2.74 3.62C2.19333 3.62 1.51333 3.61333 0.7 3.6C0.486667 3.6 0.32 3.53333 0.2 3.4C0.08 3.26667 0.02 3.10667 0.02 2.92C0.02 2.72 0.1 2.52667 0.26 2.34C0.433333 2.15333 0.64 2.04667 0.88 2.02ZM12.7555 8.52L12.9155 13.24C12.9155 13.8267 12.8888 14.1667 12.8355 14.26C12.8088 14.5 12.7288 14.6867 12.5955 14.82C12.4755 14.9533 12.2355 15.02 11.8755 15.02C11.7021 15.02 11.5621 14.9133 11.4555 14.7C11.3488 14.4733 11.2888 14.22 11.2755 13.94C11.1821 11.5933 11.0555 9.39333 10.8955 7.34C10.7488 5.27333 10.6755 3.35333 10.6755 1.58C10.6755 1.3 10.7688 1.08 10.9555 0.919999C11.1421 0.759999 11.3621 0.68 11.6155 0.68C11.9888 0.68 12.2088 0.999999 12.2755 1.64C12.3555 2.28 12.4021 3.08 12.4155 4.04C12.4421 5 12.4688 5.7 12.4955 6.14C13.1621 5.79333 13.8288 5.62 14.4955 5.62C16.0421 5.62 17.0221 6.3 17.4355 7.66C17.6755 8.43333 17.7955 9.42667 17.7955 10.64C17.7955 11.04 17.7555 11.6733 17.6755 12.54C17.6088 13.3933 17.5688 13.9467 17.5555 14.2C17.5421 14.4533 17.4288 14.6533 17.2155 14.8C17.0155 14.9333 16.7955 15 16.5555 15C16.1821 15 15.9955 14.8 15.9955 14.4L16.1355 10.92C16.1355 10.6267 16.1221 10.14 16.0955 9.46C16.0688 8.78 15.9288 8.24 15.6755 7.84C15.4355 7.44 15.0088 7.24 14.3955 7.24C13.3021 7.24 12.7555 7.66667 12.7555 8.52ZM25.0939 5.66C25.6806 5.66 25.9739 6.16 25.9739 7.16C25.9739 7.26667 25.9739 7.38 25.9739 7.5L25.9339 8.9C25.9206 9.34 25.9139 9.77333 25.9139 10.2L26.2139 14.72C26.2139 15.0533 25.8739 15.22 25.1939 15.22C25.1539 15.22 25.0539 15.22 24.8939 15.22C24.7472 15.22 24.6406 15.16 24.5739 15.04C24.5206 14.92 24.5139 14.7733 24.5539 14.6C24.6072 14.4267 24.5939 14.2333 24.5139 14.02C23.9006 14.6733 23.0872 15 22.0739 15C20.1939 15 19.2539 13.5467 19.2539 10.64C19.2539 9.02667 19.5539 7.80667 20.1539 6.98C20.7672 6.15333 21.6406 5.74 22.7739 5.74C23.3072 5.74 23.8406 5.83333 24.3739 6.02C24.5472 5.78 24.7872 5.66 25.0939 5.66ZM23.0139 7.48C22.2539 7.48 21.6872 7.7 21.3139 8.14C20.9406 8.58 20.7539 9.38667 20.7539 10.56C20.7539 12.5333 21.2872 13.52 22.3539 13.52C22.6339 13.52 22.9406 13.3933 23.2739 13.14C23.6206 12.8867 23.8606 12.6 23.9939 12.28C24.2472 11.56 24.3739 10.7733 24.3739 9.92C24.3739 9.06667 24.2672 8.44667 24.0539 8.06C23.8539 7.67333 23.5072 7.48 23.0139 7.48ZM28.6059 14.38L28.3859 6.26C28.3859 6.00667 28.4726 5.8 28.6459 5.64C28.8193 5.48 28.9926 5.4 29.1659 5.4C29.5926 5.4 29.8393 5.58 29.9059 5.94C29.9593 6.3 29.9859 6.67333 29.9859 7.06C30.7059 6.11333 31.6059 5.64 32.6859 5.64C34.3393 5.64 35.1659 7.52667 35.1659 11.3C35.1659 11.6467 35.1659 12.1733 35.1659 12.88C35.1659 13.5733 35.1259 14.08 35.0459 14.4C34.9526 14.8 34.6659 15 34.1859 15C33.8659 15 33.7059 14.7867 33.7059 14.36L33.7259 13.24C33.7259 11.6933 33.6726 10.64 33.5659 10.08C33.4726 9.50667 33.3793 9.05333 33.2859 8.72C33.0593 8 32.6926 7.64 32.1859 7.64C31.5193 7.64 31.0526 7.88 30.7859 8.36C30.4926 8.88 30.3193 9.49333 30.2659 10.2C30.1726 11.44 30.1259 12.7533 30.1259 14.14C30.1259 14.4067 30.0259 14.62 29.8259 14.78C29.6259 14.94 29.3859 15.02 29.1059 15.02C28.7726 15.02 28.6059 14.8067 28.6059 14.38ZM44.5289 14.1C44.5289 14.7267 44.2422 15.04 43.6689 15.04C43.4289 15.04 43.1022 14.4533 42.6889 13.28C42.2756 12.0933 41.7222 11.18 41.0289 10.54C40.9622 10.6333 40.6756 10.9 40.1689 11.34C39.6756 11.7667 39.3822 12.0267 39.2889 12.12V14.12C39.2622 14.32 39.2289 14.4733 39.1889 14.58C39.1489 14.6867 39.0556 14.7867 38.9089 14.88C38.7756 14.9733 38.5889 15.02 38.3489 15.02C37.9889 15.02 37.8089 14.8 37.8089 14.36C37.8089 13.12 37.7556 11.2 37.6489 8.6C37.5422 5.98667 37.4889 3.64667 37.4889 1.58C37.4889 1.32667 37.5889 1.12667 37.7889 0.979999C38.0022 0.833333 38.2222 0.76 38.4489 0.76C38.7556 0.76 38.9422 0.953333 39.0089 1.34V4.88C39.0089 5.30667 39.0156 5.62667 39.0289 5.84C39.0422 6.05333 39.0556 6.37333 39.0689 6.8C39.0956 7.68 39.1422 8.67333 39.2089 9.78C39.5956 9.48667 40.0889 9.02667 40.6889 8.4C41.3022 7.76 41.7622 7.21333 42.0689 6.76C42.5489 6 42.9889 5.62 43.3889 5.62C43.4956 5.62 43.6022 5.64667 43.7089 5.7C43.9889 5.86 44.1289 6.04667 44.1289 6.26C44.1289 6.47333 44.0356 6.75333 43.8489 7.1C43.3689 7.92667 42.8156 8.68 42.1889 9.36C42.7889 10.0267 43.3889 10.98 43.9889 12.22C44.3489 13.02 44.5289 13.6467 44.5289 14.1ZM206.408 5.66L207.408 5.68C207.635 5.68 207.762 5.67333 207.788 5.66V1.56C207.802 1.33333 207.915 1.14 208.128 0.979999C208.342 0.819999 208.542 0.739999 208.728 0.739999C208.915 0.739999 209.062 0.799999 209.168 0.919999C209.288 1.04 209.342 1.22667 209.328 1.48C209.315 1.73333 209.308 3.12 209.308 5.64L211.648 5.56C212.048 5.56 212.248 5.79333 212.248 6.26C212.248 6.60667 212.142 6.86667 211.928 7.04C211.728 7.21333 211.508 7.30667 211.268 7.32C211.042 7.33333 210.815 7.34 210.588 7.34L209.368 7.32C209.368 7.86667 209.422 8.94667 209.528 10.56C209.648 12.1733 209.742 13.22 209.808 13.7C209.875 14.1667 209.888 14.4733 209.848 14.62C209.808 14.7533 209.735 14.8467 209.628 14.9C209.455 14.98 209.222 15.02 208.928 15.02C208.635 15.02 208.462 14.86 208.408 14.54C208.142 12.7933 207.962 10.3933 207.868 7.34C207.748 7.35333 207.288 7.36 206.488 7.36C205.688 7.36 205.288 7.12667 205.288 6.66C205.288 5.99333 205.662 5.66 206.408 5.66ZM215.423 8.52L215.583 13.24C215.583 13.8267 215.557 14.1667 215.503 14.26C215.477 14.5 215.397 14.6867 215.263 14.82C215.143 14.9533 214.903 15.02 214.543 15.02C214.37 15.02 214.23 14.9133 214.123 14.7C214.017 14.4733 213.957 14.22 213.943 13.94C213.85 11.5933 213.723 9.39333 213.563 7.34C213.417 5.27333 213.343 3.35333 213.343 1.58C213.343 1.3 213.437 1.08 213.623 0.919999C213.81 0.759999 214.03 0.68 214.283 0.68C214.657 0.68 214.877 0.999999 214.943 1.64C215.023 2.28 215.07 3.08 215.083 4.04C215.11 5 215.137 5.7 215.163 6.14C215.83 5.79333 216.497 5.62 217.163 5.62C218.71 5.62 219.69 6.3 220.103 7.66C220.343 8.43333 220.463 9.42667 220.463 10.64C220.463 11.04 220.423 11.6733 220.343 12.54C220.277 13.3933 220.237 13.9467 220.223 14.2C220.21 14.4533 220.097 14.6533 219.883 14.8C219.683 14.9333 219.463 15 219.223 15C218.85 15 218.663 14.8 218.663 14.4L218.803 10.92C218.803 10.6267 218.79 10.14 218.763 9.46C218.737 8.78 218.597 8.24 218.343 7.84C218.103 7.44 217.677 7.24 217.063 7.24C215.97 7.24 215.423 7.66667 215.423 8.52ZM225.062 5.74C225.769 5.74 226.442 5.94667 227.082 6.36C227.722 6.77333 228.042 7.28667 228.042 7.9C228.042 8.5 227.782 9.08667 227.262 9.66C226.742 10.22 226.049 10.56 225.182 10.68C224.809 10.7333 224.249 10.76 223.502 10.76C223.649 11.8933 223.935 12.64 224.362 13C224.495 13.1467 224.675 13.22 224.902 13.22C225.729 13.22 226.422 12.96 226.982 12.44C227.542 11.9067 227.942 11.64 228.182 11.64C228.289 11.64 228.449 11.74 228.662 11.94C228.875 12.14 228.982 12.3267 228.982 12.5C228.982 12.8467 228.562 13.3467 227.722 14C227.349 14.3067 226.895 14.5667 226.362 14.78C225.842 14.98 225.355 15.08 224.902 15.08C223.742 15.08 222.889 14.3333 222.342 12.84C221.995 11.92 221.822 10.9067 221.822 9.8C221.822 8.69333 222.082 7.74 222.602 6.94C223.122 6.14 223.942 5.74 225.062 5.74ZM225.162 7.12C224.655 7.12 224.222 7.40667 223.862 7.98C223.729 8.18 223.602 8.63333 223.482 9.34C225.349 9.34 226.282 8.88 226.282 7.96C226.282 7.4 225.909 7.12 225.162 7.12Z" fill="#F0835B"/>
<path d="M57.6791 5.76C57.8524 5.76 58.0191 5.82 58.1791 5.94C58.3524 6.06 58.4391 6.19333 58.4391 6.34C58.4391 6.72667 57.8724 8.82 56.7391 12.62C55.6057 16.42 54.7657 19.0867 54.2191 20.62C54.0991 20.98 53.9124 21.16 53.6591 21.16C53.4057 21.16 53.2057 21.0667 53.0591 20.88C52.9124 20.7067 52.8391 20.4467 52.8391 20.1C52.8391 19.7533 53.0591 18.92 53.4991 17.6C53.9524 16.2933 54.2257 15.46 54.3191 15.1C53.9857 14.54 52.8591 11.74 50.9391 6.7C50.9124 6.63333 50.8991 6.54667 50.8991 6.44C50.8991 6.33333 50.9791 6.19333 51.1391 6.02C51.2991 5.84667 51.5191 5.76 51.7991 5.76C52.0791 5.76 52.3057 5.9 52.4791 6.18C52.6657 6.66 52.9724 7.5 53.3991 8.7C53.8257 9.88667 54.1524 10.7467 54.3791 11.28C54.6191 11.8133 54.8457 12.3667 55.0591 12.94C55.2457 12.3133 55.5657 11.1 56.0191 9.3C56.4724 7.48667 56.7324 6.45333 56.7991 6.2C56.8524 5.90667 57.1457 5.76 57.6791 5.76ZM63.7961 5.68C64.7561 5.68 65.5428 6.14 66.1561 7.06C66.7828 7.98 67.0961 9.08667 67.0961 10.38C67.0961 11.66 66.7761 12.7533 66.1361 13.66C65.5094 14.5667 64.6694 15.02 63.6161 15.02C62.5761 15.02 61.7361 14.56 61.0961 13.64C60.4561 12.7067 60.1361 11.6733 60.1361 10.54C60.1361 9.08667 60.4294 7.92667 61.0161 7.06C61.6428 6.14 62.5694 5.68 63.7961 5.68ZM63.5561 7.32C62.9961 7.32 62.5361 7.61333 62.1761 8.2C61.8161 8.78667 61.6361 9.40667 61.6361 10.06C61.6361 11.0733 61.8361 11.8467 62.2361 12.38C62.6361 12.9133 63.0894 13.18 63.5961 13.18C64.5028 13.18 65.0828 12.7867 65.3361 12C65.4428 11.6267 65.4961 11.16 65.4961 10.6C65.4961 8.41333 64.8494 7.32 63.5561 7.32ZM68.7825 6.44C68.8358 6.21333 68.9492 6.02667 69.1225 5.88C69.2958 5.72 69.4692 5.64 69.6425 5.64C69.8292 5.64 69.9692 5.67333 70.0625 5.74C70.1692 5.80667 70.2292 5.86667 70.2425 5.92C70.2692 5.97333 70.2958 6.06667 70.3225 6.2C70.2425 7.24 70.2025 8.18 70.2025 9.02C70.2025 9.84667 70.3025 10.8 70.5025 11.88C70.7025 12.9467 70.9225 13.48 71.1625 13.48C71.5225 13.48 71.9758 13.28 72.5225 12.88C73.0825 12.48 73.4825 12.06 73.7225 11.62C73.5625 9.7 73.4825 8.05333 73.4825 6.68C73.4825 6.4 73.5692 6.16 73.7425 5.96C73.9292 5.76 74.1492 5.66 74.4025 5.66C74.8158 5.66 75.0225 5.94 75.0225 6.5C75.0225 7.44667 75.0892 8.85333 75.2225 10.72C75.3692 12.5867 75.5158 13.7733 75.6625 14.28C75.6892 14.3867 75.7025 14.5133 75.7025 14.66C75.7025 14.7933 75.6092 14.92 75.4225 15.04C75.2492 15.1733 75.0158 15.24 74.7225 15.24C74.4425 15.24 74.2558 15.08 74.1625 14.76C74.1358 14.4933 74.0692 14.0933 73.9625 13.56C73.0292 14.5333 72.0892 15.02 71.1425 15.02C70.7025 15.02 70.3092 14.8533 69.9625 14.52C69.6158 14.1867 69.3425 13.7333 69.1425 13.16C68.7958 12.0533 68.6225 11.0133 68.6225 10.04C68.6225 9.06667 68.6758 7.86667 68.7825 6.44ZM237.42 14.98C236.967 14.98 236.527 14.1 236.1 12.34C235.687 10.5667 235.48 8.58 235.48 6.38C235.48 6.15333 235.573 5.98 235.76 5.86C235.96 5.72667 236.14 5.66 236.3 5.66C236.46 5.66 236.587 5.71333 236.68 5.82C236.787 5.91333 236.84 6.04 236.84 6.2C236.84 8.28 237.193 10.28 237.9 12.2C238.007 12.04 238.173 11.72 238.4 11.24C238.627 10.7467 238.84 10.3867 239.04 10.16C239.24 9.93333 239.48 9.82 239.76 9.82C240.04 9.82 240.333 10.0267 240.64 10.44C240.947 10.8533 241.207 11.3 241.42 11.78C241.647 12.2467 241.773 12.4933 241.8 12.52C242.16 11.4 242.34 10.36 242.34 9.4L242.22 6.36C242.207 6.16 242.3 5.99333 242.5 5.86C242.7 5.71333 242.893 5.64 243.08 5.64C243.467 5.64 243.66 6.39333 243.66 7.9V9C243.66 10.7867 243.387 12.38 242.84 13.78C242.547 14.58 242.18 14.98 241.74 14.98C241.487 14.98 241.253 14.82 241.04 14.5C240.827 14.1667 240.587 13.7 240.32 13.1C240.053 12.5 239.847 12.0867 239.7 11.86L239.1 13.04C238.873 13.5067 238.7 13.8467 238.58 14.06C238.46 14.26 238.293 14.4667 238.08 14.68C237.867 14.88 237.647 14.98 237.42 14.98ZM251.098 5.66C251.684 5.66 251.978 6.16 251.978 7.16C251.978 7.26667 251.978 7.38 251.978 7.5L251.938 8.9C251.924 9.34 251.918 9.77333 251.918 10.2L252.218 14.72C252.218 15.0533 251.878 15.22 251.198 15.22C251.158 15.22 251.058 15.22 250.898 15.22C250.751 15.22 250.644 15.16 250.578 15.04C250.524 14.92 250.518 14.7733 250.558 14.6C250.611 14.4267 250.598 14.2333 250.518 14.02C249.904 14.6733 249.091 15 248.078 15C246.198 15 245.258 13.5467 245.258 10.64C245.258 9.02667 245.558 7.80667 246.158 6.98C246.771 6.15333 247.644 5.74 248.778 5.74C249.311 5.74 249.844 5.83333 250.378 6.02C250.551 5.78 250.791 5.66 251.098 5.66ZM249.018 7.48C248.258 7.48 247.691 7.7 247.318 8.14C246.944 8.58 246.758 9.38667 246.758 10.56C246.758 12.5333 247.291 13.52 248.358 13.52C248.638 13.52 248.944 13.3933 249.278 13.14C249.624 12.8867 249.864 12.6 249.998 12.28C250.251 11.56 250.378 10.7733 250.378 9.92C250.378 9.06667 250.271 8.44667 250.058 8.06C249.858 7.67333 249.511 7.48 249.018 7.48ZM260.23 5.76C260.403 5.76 260.57 5.82 260.73 5.94C260.903 6.06 260.99 6.19333 260.99 6.34C260.99 6.72667 260.423 8.82 259.29 12.62C258.157 16.42 257.317 19.0867 256.77 20.62C256.65 20.98 256.463 21.16 256.21 21.16C255.957 21.16 255.757 21.0667 255.61 20.88C255.463 20.7067 255.39 20.4467 255.39 20.1C255.39 19.7533 255.61 18.92 256.05 17.6C256.503 16.2933 256.777 15.46 256.87 15.1C256.537 14.54 255.41 11.74 253.49 6.7C253.463 6.63333 253.45 6.54667 253.45 6.44C253.45 6.33333 253.53 6.19333 253.69 6.02C253.85 5.84667 254.07 5.76 254.35 5.76C254.63 5.76 254.857 5.9 255.03 6.18C255.217 6.66 255.523 7.5 255.95 8.7C256.377 9.88667 256.703 10.7467 256.93 11.28C257.17 11.8133 257.397 12.3667 257.61 12.94C257.797 12.3133 258.117 11.1 258.57 9.3C259.023 7.48667 259.283 6.45333 259.35 6.2C259.403 5.90667 259.697 5.76 260.23 5.76Z" fill="#359B85"/>
<path d="M85.1597 0.999999C85.373 0.84 85.553 0.753333 85.6997 0.739999C85.8597 0.713332 86.213 0.699999 86.7597 0.699999C87.3197 0.699999 87.7797 0.779999 88.1397 0.94C88.4997 1.1 88.6797 1.42 88.6797 1.9C88.6797 2.38 88.4864 2.62 88.0997 2.62C88.0197 2.62 87.793 2.55333 87.4197 2.42C87.0464 2.27333 86.8064 2.2 86.6997 2.2C86.233 2.2 85.953 2.48 85.8597 3.04C85.833 3.24 85.8197 3.65333 85.8197 4.28C85.8197 4.89333 85.8197 5.4 85.8197 5.8H87.2197C87.8064 5.82667 88.0997 6.03333 88.0997 6.42C88.0997 6.98 87.6997 7.27333 86.8997 7.3C86.7797 7.31333 86.633 7.32 86.4597 7.32C86.2864 7.32 86.0864 7.31333 85.8597 7.3C85.8864 7.83333 85.9464 8.78667 86.0397 10.16C86.133 11.52 86.1797 12.8467 86.1797 14.14C86.1797 14.4067 86.073 14.62 85.8597 14.78C85.6464 14.94 85.4264 15.02 85.1997 15.02C84.8397 15.02 84.6597 14.8067 84.6597 14.38C84.6597 13.18 84.613 12.0133 84.5197 10.88C84.4264 9.74667 84.3597 8.55333 84.3197 7.3C83.1197 7.3 82.4197 7.18 82.2197 6.94C82.1397 6.84667 82.0997 6.72667 82.0997 6.58C82.0997 6.23333 82.2397 6.00667 82.5197 5.9C82.813 5.79333 83.1464 5.74 83.5197 5.74C83.893 5.74 84.1597 5.74 84.3197 5.74C84.3597 3.56667 84.4797 2.22 84.6797 1.7C84.7997 1.38 84.9597 1.14667 85.1597 0.999999ZM93.6672 5.68C94.6272 5.68 95.4139 6.14 96.0272 7.06C96.6539 7.98 96.9672 9.08667 96.9672 10.38C96.9672 11.66 96.6472 12.7533 96.0072 13.66C95.3805 14.5667 94.5405 15.02 93.4872 15.02C92.4472 15.02 91.6072 14.56 90.9672 13.64C90.3272 12.7067 90.0072 11.6733 90.0072 10.54C90.0072 9.08667 90.3005 7.92667 90.8872 7.06C91.5139 6.14 92.4405 5.68 93.6672 5.68ZM93.4272 7.32C92.8672 7.32 92.4072 7.61333 92.0472 8.2C91.6872 8.78667 91.5072 9.40667 91.5072 10.06C91.5072 11.0733 91.7072 11.8467 92.1072 12.38C92.5072 12.9133 92.9605 13.18 93.4672 13.18C94.3739 13.18 94.9539 12.7867 95.2072 12C95.3139 11.6267 95.3672 11.16 95.3672 10.6C95.3672 8.41333 94.7205 7.32 93.4272 7.32ZM101.274 12.08L101.294 14.14C101.294 14.38 101.18 14.6 100.954 14.8C100.74 15 100.527 15.1 100.314 15.1C100.007 15.1 99.8136 14.86 99.7336 14.38C99.7203 14.2733 99.6669 13.3 99.5736 11.46C99.4803 9.60667 99.3003 8.15333 99.0336 7.1C98.9136 6.59333 98.8536 6.29333 98.8536 6.2C98.8536 5.76 99.1203 5.54 99.6536 5.54C99.8803 5.54 100.06 5.62667 100.194 5.8C100.327 5.97333 100.407 6.15333 100.434 6.34C100.474 6.51333 100.507 6.75333 100.534 7.06C100.56 7.36667 100.58 7.56 100.594 7.64C100.874 6.97333 101.294 6.47333 101.854 6.14C102.414 5.80667 103.027 5.64 103.694 5.64C104.787 5.64 105.334 5.92 105.334 6.48C105.334 6.76 105.234 6.98667 105.034 7.16C104.847 7.32 104.627 7.4 104.374 7.4C103.24 7.4 102.44 7.76 101.974 8.48C101.507 9.2 101.274 10.4 101.274 12.08ZM272.696 5.64L272.676 1.78C272.676 1.06 272.903 0.699999 273.356 0.699999C273.823 0.699999 274.083 0.899999 274.136 1.3C274.163 1.47333 274.196 2.52 274.236 4.44C274.276 6.36 274.336 8.16 274.416 9.84C274.51 11.52 274.556 13.0867 274.556 14.54C274.556 14.94 274.256 15.14 273.656 15.14C273.256 15.14 273.056 14.86 273.056 14.3C272.483 14.7533 271.803 14.98 271.016 14.98C270.016 14.98 269.203 14.6067 268.576 13.86C267.963 13.1133 267.656 12.1933 267.656 11.1C267.656 10.0067 267.876 8.98667 268.316 8.04C268.77 7.08 269.47 6.39333 270.416 5.98C271.003 5.72667 271.57 5.6 272.116 5.6C272.316 5.6 272.51 5.61333 272.696 5.64ZM272.796 8.38C272.703 8.08667 272.59 7.86667 272.456 7.72C272.323 7.56 272.176 7.46667 272.016 7.44C271.87 7.4 271.69 7.38 271.476 7.38C271.263 7.38 271.003 7.46 270.696 7.62C270.39 7.78 270.13 8.04 269.916 8.4C269.49 9.12 269.276 9.88 269.276 10.68C269.276 11.4667 269.43 12.1133 269.736 12.62C270.056 13.1133 270.503 13.36 271.076 13.36C271.663 13.36 272.123 13.0733 272.456 12.5C272.79 11.9267 272.956 11.1933 272.956 10.3C272.956 9.3 272.903 8.66 272.796 8.38ZM279.749 5.68C280.709 5.68 281.496 6.14 282.109 7.06C282.736 7.98 283.049 9.08667 283.049 10.38C283.049 11.66 282.729 12.7533 282.089 13.66C281.463 14.5667 280.623 15.02 279.569 15.02C278.529 15.02 277.689 14.56 277.049 13.64C276.409 12.7067 276.089 11.6733 276.089 10.54C276.089 9.08667 276.383 7.92667 276.969 7.06C277.596 6.14 278.523 5.68 279.749 5.68ZM279.509 7.32C278.949 7.32 278.489 7.61333 278.129 8.2C277.769 8.78667 277.589 9.40667 277.589 10.06C277.589 11.0733 277.789 11.8467 278.189 12.38C278.589 12.9133 279.043 13.18 279.549 13.18C280.456 13.18 281.036 12.7867 281.289 12C281.396 11.6267 281.449 11.16 281.449 10.6C281.449 8.41333 280.803 7.32 279.509 7.32ZM286.436 14.98C285.982 14.98 285.542 14.1 285.116 12.34C284.702 10.5667 284.496 8.58 284.496 6.38C284.496 6.15333 284.589 5.98 284.776 5.86C284.976 5.72667 285.156 5.66 285.316 5.66C285.476 5.66 285.602 5.71333 285.696 5.82C285.802 5.91333 285.856 6.04 285.856 6.2C285.856 8.28 286.209 10.28 286.916 12.2C287.022 12.04 287.189 11.72 287.416 11.24C287.642 10.7467 287.856 10.3867 288.056 10.16C288.256 9.93333 288.496 9.82 288.776 9.82C289.056 9.82 289.349 10.0267 289.656 10.44C289.962 10.8533 290.222 11.3 290.436 11.78C290.662 12.2467 290.789 12.4933 290.816 12.52C291.176 11.4 291.356 10.36 291.356 9.4L291.236 6.36C291.222 6.16 291.316 5.99333 291.516 5.86C291.716 5.71333 291.909 5.64 292.096 5.64C292.482 5.64 292.676 6.39333 292.676 7.9V9C292.676 10.7867 292.402 12.38 291.856 13.78C291.562 14.58 291.196 14.98 290.756 14.98C290.502 14.98 290.269 14.82 290.056 14.5C289.842 14.1667 289.602 13.7 289.336 13.1C289.069 12.5 288.862 12.0867 288.716 11.86L288.116 13.04C287.889 13.5067 287.716 13.8467 287.596 14.06C287.476 14.26 287.309 14.4667 287.096 14.68C286.882 14.88 286.662 14.98 286.436 14.98ZM295.293 14.38L295.073 6.26C295.073 6.00667 295.16 5.8 295.333 5.64C295.507 5.48 295.68 5.4 295.853 5.4C296.28 5.4 296.527 5.58 296.593 5.94C296.647 6.3 296.673 6.67333 296.673 7.06C297.393 6.11333 298.293 5.64 299.373 5.64C301.027 5.64 301.853 7.52667 301.853 11.3C301.853 11.6467 301.853 12.1733 301.853 12.88C301.853 13.5733 301.813 14.08 301.733 14.4C301.64 14.8 301.353 15 300.873 15C300.553 15 300.393 14.7867 300.393 14.36L300.413 13.24C300.413 11.6933 300.36 10.64 300.253 10.08C300.16 9.50667 300.067 9.05333 299.973 8.72C299.747 8 299.38 7.64 298.873 7.64C298.207 7.64 297.74 7.88 297.473 8.36C297.18 8.88 297.007 9.49333 296.953 10.2C296.86 11.44 296.813 12.7533 296.813 14.14C296.813 14.4067 296.713 14.62 296.513 14.78C296.313 14.94 296.073 15.02 295.793 15.02C295.46 15.02 295.293 14.8067 295.293 14.38Z" fill="#35B3E5"/>
<path d="M112.338 8.2C112.338 7.41333 112.618 6.78667 113.178 6.32C113.738 5.85333 114.385 5.62 115.118 5.62C115.865 5.62 116.578 5.75333 117.258 6.02C117.938 6.28667 118.278 6.64 118.278 7.08C118.278 7.30667 118.192 7.48667 118.018 7.62C117.845 7.75333 117.692 7.82 117.558 7.82C117.438 7.82 117.338 7.82 117.258 7.82C117.192 7.80667 116.925 7.68 116.458 7.44C116.005 7.2 115.585 7.08 115.198 7.08C114.812 7.08 114.478 7.18 114.198 7.38C113.932 7.56667 113.798 7.84667 113.798 8.22C113.798 8.59333 113.952 8.88667 114.258 9.1C114.578 9.31333 115.132 9.5 115.918 9.66C116.705 9.80667 117.305 10.02 117.718 10.3C118.145 10.58 118.358 11.1 118.358 11.86C118.358 12.9667 118.065 13.7533 117.478 14.22C116.905 14.6733 116.205 14.9 115.378 14.9C114.552 14.9 113.845 14.7867 113.258 14.56C112.685 14.3333 112.398 13.9933 112.398 13.54C112.398 13.02 112.658 12.76 113.178 12.76C113.312 12.76 113.605 12.8533 114.058 13.04C114.512 13.2267 114.958 13.32 115.398 13.32C115.852 13.32 116.192 13.18 116.418 12.9C116.658 12.6067 116.778 12.2733 116.778 11.9C116.778 11.5267 116.625 11.26 116.318 11.1C116.012 10.9267 115.545 10.7867 114.918 10.68C114.292 10.5733 113.832 10.46 113.538 10.34C112.738 10.02 112.338 9.30667 112.338 8.2ZM119.914 10.32C119.914 9.42667 120.147 8.61333 120.614 7.88C121.094 7.14667 121.7 6.6 122.434 6.24C123.167 5.86667 123.88 5.68 124.574 5.68C125.267 5.68 125.82 5.76667 126.234 5.94C126.66 6.1 126.874 6.32 126.874 6.6C126.874 6.86667 126.794 7.14 126.634 7.42C126.487 7.68667 126.287 7.82 126.034 7.82C125.94 7.82 125.68 7.74667 125.254 7.6C124.84 7.44 124.574 7.36 124.454 7.36C123.68 7.36 123.02 7.64667 122.474 8.22C121.927 8.78 121.654 9.52667 121.654 10.46C121.654 11.3933 121.8 12.0933 122.094 12.56C122.4 13.0133 122.92 13.24 123.654 13.24C123.947 13.24 124.447 13.0733 125.154 12.74C125.874 12.3933 126.32 12.22 126.494 12.22C126.667 12.22 126.807 12.2733 126.914 12.38C127.02 12.4867 127.074 12.62 127.074 12.78C127.074 13.1 126.867 13.44 126.454 13.8C126.054 14.1467 125.554 14.44 124.954 14.68C124.354 14.9067 123.814 15.02 123.334 15.02C122.267 15.02 121.427 14.6 120.814 13.76C120.214 12.92 119.914 11.7733 119.914 10.32ZM131.028 12.08L131.048 14.14C131.048 14.38 130.934 14.6 130.708 14.8C130.494 15 130.281 15.1 130.068 15.1C129.761 15.1 129.568 14.86 129.488 14.38C129.474 14.2733 129.421 13.3 129.328 11.46C129.234 9.60667 129.054 8.15333 128.788 7.1C128.668 6.59333 128.608 6.29333 128.608 6.2C128.608 5.76 128.874 5.54 129.408 5.54C129.634 5.54 129.814 5.62667 129.948 5.8C130.081 5.97333 130.161 6.15333 130.188 6.34C130.228 6.51333 130.261 6.75333 130.288 7.06C130.314 7.36667 130.334 7.56 130.348 7.64C130.628 6.97333 131.048 6.47333 131.608 6.14C132.168 5.80667 132.781 5.64 133.448 5.64C134.541 5.64 135.088 5.92 135.088 6.48C135.088 6.76 134.988 6.98667 134.788 7.16C134.601 7.32 134.381 7.4 134.128 7.4C132.994 7.4 132.194 7.76 131.728 8.48C131.261 9.2 131.028 10.4 131.028 12.08ZM140.183 5.68C141.143 5.68 141.929 6.14 142.543 7.06C143.169 7.98 143.483 9.08667 143.483 10.38C143.483 11.66 143.163 12.7533 142.523 13.66C141.896 14.5667 141.056 15.02 140.003 15.02C138.963 15.02 138.123 14.56 137.483 13.64C136.843 12.7067 136.523 11.6733 136.523 10.54C136.523 9.08667 136.816 7.92667 137.403 7.06C138.029 6.14 138.956 5.68 140.183 5.68ZM139.943 7.32C139.383 7.32 138.923 7.61333 138.563 8.2C138.203 8.78667 138.023 9.40667 138.023 10.06C138.023 11.0733 138.223 11.8467 138.623 12.38C139.023 12.9133 139.476 13.18 139.983 13.18C140.889 13.18 141.469 12.7867 141.723 12C141.829 11.6267 141.883 11.16 141.883 10.6C141.883 8.41333 141.236 7.32 139.943 7.32ZM152.469 12.02C152.936 12.02 153.169 12.4133 153.169 13.2C153.169 13.6267 152.936 14.0533 152.469 14.48C152.016 14.8933 151.516 15.1 150.969 15.1C150.156 15.1 149.556 14.6867 149.169 13.86C148.996 14.1933 148.716 14.4867 148.329 14.74C147.956 14.98 147.576 15.1 147.189 15.1C146.816 15.1 146.489 15.0267 146.209 14.88C145.943 14.72 145.723 14.4867 145.549 14.18C145.389 13.8733 145.256 13.58 145.149 13.3C145.056 13.0067 144.983 12.6533 144.929 12.24C144.863 11.5733 144.809 10.5067 144.769 9.04C144.743 7.56 144.729 6.15333 144.729 4.82C144.729 3.47333 144.743 2.55333 144.769 2.06C144.809 1.55333 144.889 1.22667 145.009 1.08C145.143 0.92 145.343 0.84 145.609 0.84C146.196 0.84 146.489 1.07333 146.489 1.54C146.489 1.9 146.456 2.84 146.389 4.36C146.336 5.88 146.309 7.24 146.309 8.44C146.309 9.64 146.356 10.6067 146.449 11.34C146.609 12.62 146.836 13.26 147.129 13.26C147.423 13.26 147.649 13.0533 147.809 12.64C147.863 12.48 147.963 12.34 148.109 12.22C148.256 12.0867 148.443 12.02 148.669 12.02H148.709C148.589 10.8467 148.529 9.02 148.529 6.54C148.529 4.04667 148.543 2.55333 148.569 2.06C148.609 1.55333 148.689 1.22667 148.809 1.08C148.943 0.92 149.143 0.84 149.409 0.84C149.996 0.84 150.289 1.07333 150.289 1.54C150.289 1.9 150.256 2.84 150.189 4.36C150.136 5.88 150.109 7.24 150.109 8.44C150.109 9.64 150.156 10.6067 150.249 11.34C150.409 12.62 150.636 13.26 150.929 13.26C151.223 13.26 151.449 13.0533 151.609 12.64C151.663 12.48 151.763 12.34 151.909 12.22C152.056 12.0867 152.243 12.02 152.469 12.02ZM155.643 2.36C155.883 2.36 156.109 2.47333 156.323 2.7C156.536 2.92667 156.643 3.16667 156.643 3.42C156.643 3.66 156.523 3.90667 156.283 4.16C156.056 4.41333 155.816 4.54 155.563 4.54C155.309 4.54 155.076 4.43333 154.863 4.22C154.663 4.00667 154.563 3.73333 154.563 3.4C154.563 2.76 154.909 2.41333 155.603 2.36C155.616 2.36 155.629 2.36 155.643 2.36ZM156.483 12.84L156.502 14.24C156.502 14.4933 156.402 14.7067 156.202 14.88C156.003 15.04 155.789 15.12 155.563 15.12C155.229 15.12 155.056 14.9533 155.043 14.62C154.869 10.3667 154.783 8.01333 154.783 7.56C154.783 7.10667 154.803 6.55333 154.843 5.9C154.869 5.66 155.023 5.54 155.303 5.54C156.009 5.54 156.409 5.82667 156.502 6.4C156.543 6.69333 156.563 6.92667 156.563 7.1L156.483 8.36V12.84ZM160.055 14.38L159.835 6.26C159.835 6.00667 159.922 5.8 160.095 5.64C160.268 5.48 160.442 5.4 160.615 5.4C161.042 5.4 161.288 5.58 161.355 5.94C161.408 6.3 161.435 6.67333 161.435 7.06C162.155 6.11333 163.055 5.64 164.135 5.64C165.788 5.64 166.615 7.52667 166.615 11.3C166.615 11.6467 166.615 12.1733 166.615 12.88C166.615 13.5733 166.575 14.08 166.495 14.4C166.402 14.8 166.115 15 165.635 15C165.315 15 165.155 14.7867 165.155 14.36L165.175 13.24C165.175 11.6933 165.122 10.64 165.015 10.08C164.922 9.50667 164.828 9.05333 164.735 8.72C164.508 8 164.142 7.64 163.635 7.64C162.968 7.64 162.502 7.88 162.235 8.36C161.942 8.88 161.768 9.49333 161.715 10.2C161.622 11.44 161.575 12.7533 161.575 14.14C161.575 14.4067 161.475 14.62 161.275 14.78C161.075 14.94 160.835 15.02 160.555 15.02C160.222 15.02 160.055 14.8067 160.055 14.38ZM174.578 14.18C174.098 14.74 173.491 15.02 172.758 15.02C172.025 15.02 171.391 14.7933 170.858 14.34C169.738 13.4733 169.178 12.1467 169.178 10.36C169.178 8.96 169.565 7.84 170.338 7C171.111 6.14667 172.065 5.72 173.198 5.72C174.331 5.72 175.105 6.10667 175.518 6.88C175.878 7.56 176.058 8.58667 176.058 9.96L176.018 11.6C176.018 12.3733 176.051 13.4467 176.118 14.82C176.198 16.18 176.238 17.2067 176.238 17.9C176.238 19.0467 175.951 19.8867 175.378 20.42C174.818 20.9667 173.958 21.24 172.798 21.24C172.105 21.24 171.398 21.0933 170.678 20.8C169.958 20.5067 169.598 20.1667 169.598 19.78C169.598 19.5 169.671 19.2867 169.818 19.14C169.978 18.9933 170.158 18.92 170.358 18.92C170.558 18.92 171.005 19.0667 171.698 19.36C172.405 19.6533 172.911 19.8 173.218 19.8C174.178 19.8 174.658 19.0133 174.658 17.44C174.658 15.8667 174.631 14.78 174.578 14.18ZM174.558 9.96C174.558 8.98667 174.411 8.30667 174.118 7.92C173.838 7.52 173.391 7.32 172.778 7.32C172.165 7.32 171.671 7.6 171.298 8.16C170.925 8.72 170.738 9.43333 170.738 10.3C170.738 11.1533 170.911 11.8333 171.258 12.34C171.618 12.8467 172.165 13.1 172.898 13.1C173.631 13.1 174.105 12.7867 174.318 12.16C174.478 11.6533 174.558 10.92 174.558 9.96Z" fill="#FCBF7A"/>
<path d="M188.934 5.66C189.52 5.66 189.814 6.16 189.814 7.16C189.814 7.26667 189.814 7.38 189.814 7.5L189.774 8.9C189.76 9.34 189.754 9.77333 189.754 10.2L190.054 14.72C190.054 15.0533 189.714 15.22 189.034 15.22C188.994 15.22 188.894 15.22 188.734 15.22C188.587 15.22 188.48 15.16 188.414 15.04C188.36 14.92 188.354 14.7733 188.394 14.6C188.447 14.4267 188.434 14.2333 188.354 14.02C187.74 14.6733 186.927 15 185.914 15C184.034 15 183.094 13.5467 183.094 10.64C183.094 9.02667 183.394 7.80667 183.994 6.98C184.607 6.15333 185.48 5.74 186.614 5.74C187.147 5.74 187.68 5.83333 188.214 6.02C188.387 5.78 188.627 5.66 188.934 5.66ZM186.854 7.48C186.094 7.48 185.527 7.7 185.154 8.14C184.78 8.58 184.594 9.38667 184.594 10.56C184.594 12.5333 185.127 13.52 186.194 13.52C186.474 13.52 186.78 13.3933 187.114 13.14C187.46 12.8867 187.7 12.6 187.834 12.28C188.087 11.56 188.214 10.7733 188.214 9.92C188.214 9.06667 188.107 8.44667 187.894 8.06C187.694 7.67333 187.347 7.48 186.854 7.48ZM198.946 12.02C199.412 12.02 199.646 12.4133 199.646 13.2C199.646 13.6267 199.412 14.0533 198.946 14.48C198.492 14.8933 197.992 15.1 197.446 15.1C196.632 15.1 196.032 14.6867 195.646 13.86C195.472 14.1933 195.192 14.4867 194.806 14.74C194.432 14.98 194.052 15.1 193.666 15.1C193.292 15.1 192.966 15.0267 192.686 14.88C192.419 14.72 192.199 14.4867 192.026 14.18C191.866 13.8733 191.732 13.58 191.626 13.3C191.532 13.0067 191.459 12.6533 191.406 12.24C191.339 11.5733 191.286 10.5067 191.246 9.04C191.219 7.56 191.206 6.15333 191.206 4.82C191.206 3.47333 191.219 2.55333 191.246 2.06C191.286 1.55333 191.366 1.22667 191.486 1.08C191.619 0.92 191.819 0.84 192.086 0.84C192.672 0.84 192.966 1.07333 192.966 1.54C192.966 1.9 192.932 2.84 192.866 4.36C192.812 5.88 192.786 7.24 192.786 8.44C192.786 9.64 192.832 10.6067 192.926 11.34C193.086 12.62 193.312 13.26 193.606 13.26C193.899 13.26 194.126 13.0533 194.286 12.64C194.339 12.48 194.439 12.34 194.586 12.22C194.732 12.0867 194.919 12.02 195.146 12.02H195.186C195.066 10.8467 195.006 9.02 195.006 6.54C195.006 4.04667 195.019 2.55333 195.046 2.06C195.086 1.55333 195.166 1.22667 195.286 1.08C195.419 0.92 195.619 0.84 195.886 0.84C196.472 0.84 196.766 1.07333 196.766 1.54C196.766 1.9 196.732 2.84 196.666 4.36C196.612 5.88 196.586 7.24 196.586 8.44C196.586 9.64 196.632 10.6067 196.726 11.34C196.886 12.62 197.112 13.26 197.406 13.26C197.699 13.26 197.926 13.0533 198.086 12.64C198.139 12.48 198.239 12.34 198.386 12.22C198.532 12.0867 198.719 12.02 198.946 12.02Z" fill="#FFACCC"/>
</svg>
