<svg width="133" height="34" viewBox="0 0 133 34" fill="none" xmlns="http://www.w3.org/2000/svg">
<g opacity="0.8">
<path d="M10.472 2.52C10.472 2.168 10.728 1.816 11.24 1.464C11.752 1.112 12.248 0.935998 12.728 0.935998C13.24 0.935998 13.624 1.048 13.88 1.272C14.168 1.496 14.328 1.768 14.36 2.088C15.032 10.728 15.368 16.2 15.368 18.504C15.368 20.776 15.336 22.488 15.272 23.64C15.208 24.792 15.048 26.04 14.792 27.384C14.536 28.696 14.168 29.736 13.688 30.504C12.632 32.296 10.936 33.192 8.6 33.192C6.264 33.192 4.36 32.424 2.888 30.888C1.416 29.32 0.68 27.08 0.68 24.168C0.68 23.688 0.92 23.256 1.4 22.872C1.912 22.456 2.456 22.248 3.032 22.248C3.736 22.248 4.168 22.904 4.328 24.216C4.744 27.928 6.136 29.784 8.504 29.784C9.112 29.784 9.624 29.592 10.04 29.208C10.488 28.792 10.824 28.312 11.048 27.768C11.272 27.192 11.448 26.44 11.576 25.512C11.768 24.168 11.864 22.568 11.864 20.712C11.864 18.824 11.624 15.4 11.144 10.44C10.696 5.48 10.472 2.84 10.472 2.52ZM104.335 1.512C104.655 1.32 105.071 1.224 105.583 1.224C106.095 1.224 106.559 1.448 106.975 1.896C107.391 2.312 107.599 2.808 107.599 3.384C107.599 15.896 107.647 23.464 107.743 26.088C107.871 28.68 107.935 30.008 107.935 30.072C107.935 30.776 107.743 31.448 107.359 32.088C106.975 32.696 106.543 33 106.063 33C105.615 33 105.263 32.984 105.007 32.952C104.783 32.888 104.575 32.824 104.383 32.76C104.191 32.696 103.999 32.568 103.807 32.376L103.327 31.896C103.199 31.768 103.023 31.528 102.799 31.176C102.607 30.792 102.447 30.488 102.319 30.264C102.191 30.04 101.983 29.656 101.695 29.112C101.439 28.536 100.847 27.384 99.9193 25.656C99.0233 23.928 98.2073 22.376 97.4713 21C94.9433 16.36 92.5913 12.696 90.4153 10.008C90.4153 20.408 90.1273 27.624 89.5513 31.656C89.4553 32.424 88.8633 32.808 87.7753 32.808C87.2633 32.808 86.8313 32.68 86.4793 32.424C86.1593 32.168 85.9993 31.752 85.9993 31.176C85.9993 30.6 86.1113 27.432 86.3353 21.672C86.5913 15.912 86.7193 12.328 86.7193 10.92C86.7193 9.48 86.7193 8.568 86.7193 8.184C86.7193 5.88 86.8953 4.584 87.2473 4.296C87.5993 4.008 87.9673 3.864 88.3513 3.864C90.1113 3.864 92.7993 6.744 96.4153 12.504C97.1193 13.624 98.4633 15.976 100.447 19.56C102.431 23.112 103.615 25.304 103.999 26.136L103.423 6.216C103.423 3.464 103.727 1.896 104.335 1.512Z" fill="#EC6432"/>
<path d="M21.5176 2.472C22.0296 2.152 22.6056 1.992 23.2456 1.992C23.8856 1.992 24.2856 2.36 24.4456 3.096C24.4776 6.808 24.5416 12.36 24.6376 19.752C24.6376 24.264 24.5096 28.088 24.2536 31.224C24.1896 31.704 23.8856 32.136 23.3416 32.52C22.8296 32.872 22.3016 33.048 21.7576 33.048C20.8616 33.048 20.4136 32.584 20.4136 31.656C20.7336 28.456 20.8936 24.488 20.8936 19.752L20.6056 3.624C20.7336 3.176 21.0376 2.792 21.5176 2.472ZM125.466 1.128C127.002 1.128 128.522 1.512 130.026 2.28C131.562 3.048 132.33 3.912 132.33 4.872C132.33 6.344 131.722 7.08 130.506 7.08C130.058 7.08 129.274 6.792 128.154 6.216C127.034 5.64 126.09 5.352 125.322 5.352C122.57 5.352 120.266 6.584 118.41 9.048C116.586 11.512 115.674 14.648 115.674 18.456C115.674 21.304 116.298 23.8 117.546 25.944C118.794 28.088 120.266 29.16 121.962 29.16C123.69 29.16 125.034 28.6 125.994 27.48C126.986 26.328 127.482 25.032 127.482 23.592C127.482 22.792 127.418 22.136 127.29 21.624C127.194 21.08 126.922 20.6 126.474 20.184C126.026 19.736 125.434 19.512 124.698 19.512C123.962 19.512 123.258 19.352 122.586 19.032C121.946 18.712 121.626 18.28 121.626 17.736C121.626 17.192 121.786 16.68 122.106 16.2C122.426 15.72 122.858 15.432 123.402 15.336C125.578 15.336 127.034 15.56 127.77 16.008C128.538 16.456 129.114 16.824 129.498 17.112C129.882 17.4 130.202 17.88 130.458 18.552C130.714 19.224 130.906 19.784 131.034 20.232C131.194 20.68 131.306 21.4 131.37 22.392C131.434 24.056 131.466 26.008 131.466 28.248C131.466 30.456 131.306 31.816 130.986 32.328C130.698 32.744 130.218 32.968 129.546 33C128.874 33 128.41 32.856 128.154 32.568C127.898 32.28 127.738 31.64 127.674 30.648C126.906 31.32 125.93 31.896 124.746 32.376C123.594 32.824 122.57 33.048 121.674 33.048C118.858 33.048 116.49 31.56 114.57 28.584C112.65 25.576 111.69 21.96 111.69 17.736C111.69 15.496 112.058 13.304 112.794 11.16C113.53 8.984 114.522 7.16 115.77 5.688C118.394 2.648 121.626 1.128 125.466 1.128Z" fill="#038267"/>
<path d="M40.4945 1.368C41.2945 1.368 41.9665 1.72 42.5105 2.424C43.0545 3.128 43.7585 4.584 44.6225 6.792C46.6385 12.008 48.6065 20.184 50.5265 31.32C50.5585 31.448 50.5745 31.64 50.5745 31.896C50.5745 32.12 50.4145 32.376 50.0945 32.664C49.8065 32.92 49.3745 33.048 48.7985 33.048C48.2545 33.048 47.7905 32.92 47.4065 32.664C47.0225 32.376 46.7665 31.928 46.6385 31.32C46.5105 30.68 46.2705 29.448 45.9185 27.624C45.1505 23.56 44.6385 21.448 44.3825 21.288C43.9985 21.064 42.7185 20.824 40.5425 20.568C38.3985 20.312 36.9745 20.184 36.2705 20.184C35.5665 20.184 35.1505 20.248 35.0225 20.376C34.4465 20.888 33.6625 24.776 32.6705 32.04C32.5425 32.648 31.9345 32.952 30.8465 32.952C29.7585 32.952 29.2145 32.488 29.2145 31.56C29.2145 29.256 30.0625 24.856 31.7585 18.36C33.4545 11.864 34.8625 7.56 35.9825 5.448C37.3905 2.728 38.8945 1.368 40.4945 1.368ZM40.3025 6.696C39.8225 6.696 38.9905 8.12 37.8065 10.968C36.6225 13.784 36.0305 15.528 36.0305 16.2C36.0305 16.36 36.0625 16.472 36.1265 16.536C36.3825 16.792 37.3905 17.016 39.1505 17.208C40.9105 17.4 42.0785 17.496 42.6545 17.496C43.2305 17.496 43.5505 17.464 43.6145 17.4C43.6785 17.304 43.7105 17.048 43.7105 16.632C43.7105 16.184 43.2785 14.424 42.4145 11.352C41.5505 8.248 40.8465 6.696 40.3025 6.696Z" fill="#02A0DF"/>
<path d="M60.044 21.384L60.092 18.936C60.092 18.104 59.82 17.288 59.276 16.488C58.764 15.688 57.5 13.368 55.484 9.528C53.468 5.688 52.46 3.528 52.46 3.048C52.46 2.536 52.668 2.088 53.084 1.704C53.5 1.288 53.9 1.08 54.284 1.08C54.7 1.08 55.18 1.448 55.724 2.184C56.3 2.92 57.404 4.856 59.036 7.992C60.7 11.128 61.66 12.856 61.916 13.176C64.988 7.736 67.452 3.896 69.308 1.656C69.756 1.24 70.108 1.032 70.364 1.032C70.652 1.032 70.86 1.064 70.988 1.128C71.756 1.448 72.14 1.88 72.14 2.424C72.14 2.936 72.012 3.384 71.756 3.768C71.5 4.152 70.796 5.16 69.644 6.792C67.948 9.16 66.476 11.56 65.228 13.992C64.012 16.392 63.404 17.864 63.404 18.408V27.192L63.548 31.032C63.548 31.736 63.356 32.232 62.972 32.52C62.588 32.776 62.108 32.904 61.532 32.904C60.988 32.904 60.62 32.6 60.428 31.992C60.236 31.384 60.124 30.584 60.092 29.592C60.06 28.6 60.044 27.144 60.044 25.224V21.384Z" fill="#FBAF59"/>
<path d="M77.4864 2.472C77.9984 2.152 78.5744 1.992 79.2144 1.992C79.8544 1.992 80.2544 2.36 80.4144 3.096C80.4464 6.808 80.5104 12.36 80.6064 19.752C80.6064 24.264 80.4784 28.088 80.2224 31.224C80.1584 31.704 79.8544 32.136 79.3104 32.52C78.7984 32.872 78.2704 33.048 77.7264 33.048C76.8304 33.048 76.3824 32.584 76.3824 31.656C76.7024 28.456 76.8624 24.488 76.8624 19.752L76.5744 3.624C76.7024 3.176 77.0064 2.792 77.4864 2.472Z" fill="#FF97BF"/>
</g>
</svg>
